<svg aria-hidden="true" style="width:0;height:0;position:absolute;overflow:hidden" xmlns="http://www.w3.org/2000/svg"><defs><symbol id="icon-search-2-1-1" viewBox="0 0 32 32"><path d="m4.524 29.008 4.481-4.584.164-.107a1.072 1.072 0 0 0 0-1.516c-3.573-3.896-3.768-9.897-.453-14.025 3.313-4.128 9.107-5.101 13.537-2.275s6.124 8.576 3.957 13.436c-2.167 4.86-7.523 7.32-12.515 5.752a1.035 1.035 0 0 0-1.029.243 1.095 1.095 0 0 0-.308 1.039l-.001-.007c.084.376.358.672.712.789l.008.002c5.923 1.875 12.297-.957 15-6.667 2.701-5.709.92-12.58-4.192-16.168-5.113-3.591-12.023-2.82-16.26 1.813-4.236 4.632-4.528 11.733-.687 16.713L2.97 27.505a1.088 1.088 0 0 0 .001 1.515 1.041 1.041 0 0 0 1.493 0l.059-.011z"/></symbol><symbol id="icon-download" viewBox="0 0 33 32"><path d="M22.389 12.441a2.041 2.041 0 1 1 2.86 2.911l-.001.001-7.753 7.645c-.368.362-.874.586-1.432.586s-1.064-.224-1.432-.586l-7.642-7.547a2.041 2.041 0 0 1 2.862-2.911l4.206 4.169.042-14.683a2.045 2.045 0 0 1 4.085.031v.003l-.04 14.559 4.246-4.177zM0 30.039l.026-7.989-.001-.053a2.044 2.044 0 1 1 4.086 0l-.002.094v-.004L4.09 27.91q12.176.024 24.329 0l.019-5.855a2.044 2.044 0 0 1 4.088.019v.02-.001l-.026 7.941h-.024a2.042 2.042 0 0 1-2.021 1.948h-.001q-14.223.026-28.424 0A2.038 2.038 0 0 1 0 30.044v-.005z"/></symbol><symbol id="icon-view" viewBox="0 0 32 32"><path d="M23.958 24.688c-.732.001-1.394.3-1.872.781a2.654 2.654 0 1 0 1.881-.782h-.008zm-10.289 4.494H2.036A2.048 2.048 0 0 1 0 27.144V2.037A2.044 2.044 0 0 1 2.036.001h24.719c.561.002 1.068.23 1.435.599l.068.076c.323.359.521.836.521 1.359v19.274a10.149 10.149 0 0 0-1.855-.715l-.082-.02V1.998l-.018-.018a.085.085 0 0 0-.057-.029H2.038a.088.088 0 0 0-.086.086v25.107a.102.102 0 0 0 .085.086h11.084v.115a2.885 2.885 0 0 0 .563 1.851l-.006-.008zm2.188-2.213c.426-.514.865-.976 1.334-1.408l.01-.009c1.878-1.708 4.221-2.831 6.427-2.865s4.661.982 6.784 2.732a15.925 15.925 0 0 1 1.629 1.55l.011.012a.519.519 0 0 1 .027.66l.001-.001a10.62 10.62 0 0 1-1.986 2.125l-.02.015c-1.68 1.341-3.865 2.211-5.865 2.224s-4.216-.833-5.99-2.083a11.863 11.863 0 0 1-2.375-2.245l-.018-.023a.52.52 0 0 1 .029-.678zm2.039-.654c-.351.321-.675.651-.98.999l-.012.014a10.679 10.679 0 0 0 1.877 1.721l.032.022c1.599 1.138 3.615 1.919 5.406 1.901s3.734-.81 5.229-2.003a9.336 9.336 0 0 0 1.546-1.585l.016-.022a14.702 14.702 0 0 0-1.219-1.14l-.023-.019c-1.924-1.586-4.167-2.536-6.112-2.497s-4.06 1.07-5.75 2.604zm-7.982-7.208H22.51c.078.003.14.065.143.143v.925a11.04 11.04 0 0 0-3.469.966l.068-.028-.141.065H9.913a.145.145 0 0 1-.143-.143v-1.784c0-.079.064-.143.143-.143zM7.326 6.922h.003a1.19 1.19 0 1 1-1.19 1.19v-.003a1.19 1.19 0 0 1 1.187-1.188zm2.588.154H22.51a.145.145 0 0 1 .143.143v1.784a.151.151 0 0 1-.143.143H9.913a.148.148 0 0 1-.143-.143V7.219c0-.079.064-.143.143-.143zm-2.588 5.862h.003a1.19 1.19 0 1 1-1.19 1.19 1.19 1.19 0 0 1 1.187-1.19zm2.588.153H22.51a.145.145 0 0 1 .143.143v1.784a.151.151 0 0 1-.143.143H9.913a.148.148 0 0 1-.143-.143v-1.784c0-.079.064-.143.143-.143zm-2.588 5.862h.003a1.19 1.19 0 1 1-1.19 1.19 1.192 1.192 0 0 1 1.187-1.19zm15.885 6.25h.003a1.03 1.03 0 1 1-1.029 1.043v-.001c0-.57.457-1.033 1.025-1.042h.001z"/></symbol><symbol id="icon-like" viewBox="0 0 32 32"><path d="M16.009 30.53a3.928 3.928 0 0 1-2.232-.677C10.099 28.02 0 21.099 0 12.52 0 6.635 4.789 1.846 10.674 1.846c1.889 0 3.715.493 5.335 1.433a10.6 10.6 0 0 1 5.335-1.433c5.885 0 10.674 4.789 10.674 10.674 0 8.579-10.099 15.504-13.777 17.333a3.92 3.92 0 0 1-2.232.677zM10.674 4.514c-4.414 0-8.005 3.59-8.005 8.005 0 3.659 2.516 7.031 4.627 9.213 2.688 2.779 5.854 4.845 7.746 5.769l.19.116c.471.337 1.08.337 1.552 0l.19-.116c1.895-.927 5.061-2.991 7.746-5.769 2.11-2.182 4.627-5.551 4.627-9.213 0-4.414-3.59-8.005-8.005-8.005-1.642 0-3.222.5-4.574 1.439l-.759.534-.765-.534a7.942 7.942 0 0 0-4.571-1.439z"/></symbol><symbol id="icon-comment" viewBox="0 0 29 32"><path d="M21.849 1.324H7.238c-3.253 0-5.914 2.661-5.914 5.914v10.437c0 3.252 2.661 5.914 5.914 5.914h4.594c-.657 2.6-1.453 4.937-3.885 7.094 4.65-1.189 8.24-3.594 10.875-7.094h.795c3.252 0 8.147-2.661 8.147-5.914V7.238c-.001-3.253-2.661-5.914-5.914-5.914zm-.72 9.372a2.146 2.146 0 1 0 2.146 2.146 2.146 2.146 0 0 0-2.146-2.146zm-13.17 0h-.024a2.147 2.147 0 1 0 0 4.294h.025-.001a2.147 2.147 0 0 0 .001-4.292h-.001zm6.585 0a2.147 2.147 0 0 0-.002 4.292h.002a2.146 2.146 0 0 0 0-4.292zM7.238.001l14.613.005a7.215 7.215 0 0 1 5.11 2.119l-.003.003a7.217 7.217 0 0 1 2.122 5.109h.005v.001h-.005v10.437h.005v.001h-.005c-.001 2.128-1.479 3.981-3.448 5.276-1.834 1.205-4.149 1.954-6.017 1.954v.005h-.001v-.005h-.15a19.842 19.842 0 0 1-4.603 4.197c-1.938 1.273-4.131 2.232-6.591 2.861l-.001-.004a1.318 1.318 0 0 1-1.199-2.263l.001-.001c1.072-.951 1.784-1.94 2.298-2.978.287-.578.517-1.181.717-1.807H7.233v-.005c-1.994-.001-3.803-.812-5.11-2.119S.004 19.671.004 17.676h-.005v-.001h.005V7.238h-.005v-.002h.005c0-1.953.782-3.73 2.046-5.031.023-.027.047-.054.073-.079A7.211 7.211 0 0 1 7.234.006V.001h.001z"/></symbol></defs></svg>