<svg aria-hidden="true" style="position: absolute; width: 0; height: 0; overflow: hidden;" version="1.1" xmlns="http://www.w3.org/2000/svg" xmlns:xlink="http://www.w3.org/1999/xlink">
    <defs>
        <symbol id="icon-search-2-1-1" viewBox="0 0 32 32">
            <path d="M4.524 29.008l4.481-4.584 0.164-0.107c0.193-0.194 0.313-0.462 0.313-0.758s-0.12-0.564-0.313-0.758l0 0c-3.573-3.896-3.768-9.897-0.453-14.025 3.313-4.128 9.107-5.101 13.537-2.275s6.124 8.576 3.957 13.436c-2.167 4.86-7.523 7.32-12.515 5.752-0.092-0.030-0.198-0.047-0.309-0.047-0.279 0-0.533 0.11-0.72 0.29l0-0c-0.207 0.2-0.336 0.48-0.336 0.79 0 0.086 0.010 0.169 0.028 0.249l-0.001-0.007c0.084 0.376 0.358 0.672 0.712 0.789l0.008 0.002c5.923 1.875 12.297-0.957 15-6.667 2.701-5.709 0.92-12.58-4.192-16.168-5.113-3.591-12.023-2.82-16.26 1.813-4.236 4.632-4.528 11.733-0.687 16.713l-3.968 4.059c-0.189 0.196-0.305 0.463-0.305 0.757s0.116 0.561 0.306 0.758l-0-0c0.19 0.194 0.454 0.314 0.747 0.314s0.557-0.12 0.746-0.314l0-0 0.059-0.011z"></path>
        </symbol>
    </defs>
</svg>
