<svg aria-hidden="true" style="position: absolute; width: 0; height: 0; overflow: hidden;" version="1.1" xmlns="http://www.w3.org/2000/svg" xmlns:xlink="http://www.w3.org/1999/xlink">
    <defs>
        <symbol id="icon-search-2-1-1" viewBox="0 0 32 32">
            <path d="M4.524 29.008l4.481-4.584 0.164-0.107c0.193-0.194 0.313-0.462 0.313-0.758s-0.12-0.564-0.313-0.758l0 0c-3.573-3.896-3.768-9.897-0.453-14.025 3.313-4.128 9.107-5.101 13.537-2.275s6.124 8.576 3.957 13.436c-2.167 4.86-7.523 7.32-12.515 5.752-0.092-0.030-0.198-0.047-0.309-0.047-0.279 0-0.533 0.11-0.72 0.29l0-0c-0.207 0.2-0.336 0.48-0.336 0.79 0 0.086 0.010 0.169 0.028 0.249l-0.001-0.007c0.084 0.376 0.358 0.672 0.712 0.789l0.008 0.002c5.923 1.875 12.297-0.957 15-6.667 2.701-5.709 0.92-12.58-4.192-16.168-5.113-3.591-12.023-2.82-16.26 1.813-4.236 4.632-4.528 11.733-0.687 16.713l-3.968 4.059c-0.189 0.196-0.305 0.463-0.305 0.757s0.116 0.561 0.306 0.758l-0-0c0.19 0.194 0.454 0.314 0.747 0.314s0.557-0.12 0.746-0.314l0-0 0.059-0.011z"></path>
        </symbol>

        <symbol id="icon-download" viewBox="0 0 33 32">
            <path d="M22.389 12.441c0.371-0.382 0.89-0.619 1.464-0.619 1.127 0 2.041 0.914 2.041 2.041 0 0.587-0.248 1.117-0.645 1.489l-0.001 0.001-7.753 7.645c-0.368 0.362-0.874 0.586-1.432 0.586s-1.064-0.224-1.432-0.586l0 0-7.642-7.547c-0.377-0.371-0.61-0.886-0.61-1.456 0-1.127 0.914-2.041 2.041-2.041 0.557 0 1.063 0.223 1.431 0.586l-0-0 4.206 4.169 0.042-14.683c0.049-1.090 0.944-1.955 2.042-1.955 1.11 0 2.012 0.884 2.043 1.986l0 0.003-0.040 14.559 4.246-4.177zM0 30.039l0.026-7.989c-0-0.016-0.001-0.034-0.001-0.053 0-1.129 0.915-2.044 2.043-2.044s2.043 0.915 2.043 2.044c0 0.032-0.001 0.063-0.002 0.094l0-0.004-0.019 5.823q12.176 0.024 24.329 0l0.019-5.855c0.011-1.121 0.921-2.025 2.044-2.025 1.129 0 2.044 0.915 2.044 2.044 0 0.006-0 0.013-0 0.020v-0.001l-0.026 7.941h-0.024c-0.051 1.081-0.935 1.939-2.021 1.948h-0.001q-14.223 0.026-28.424 0c-1.090-0.003-1.978-0.861-2.030-1.938l-0-0.005z"></path>
        </symbol>


        <symbol id="icon-view" viewBox="0 0 32 32">
            <path d="M23.958 24.688h-0c-0.732 0.001-1.394 0.3-1.872 0.781l0-0c-0.478 0.48-0.773 1.142-0.773 1.872 0 1.466 1.188 2.654 2.654 2.654s2.654-1.188 2.654-2.654c0-1.466-1.188-2.654-2.654-2.654-0.003 0-0.006 0-0.008 0zM13.669 29.182h-11.633c-1.123-0.007-2.031-0.916-2.036-2.038v-25.107c0.004-1.123 0.914-2.032 2.036-2.036h24.719c0.561 0.002 1.068 0.23 1.435 0.599l0 0 0.068 0.076c0.323 0.359 0.521 0.836 0.521 1.359 0 0.001 0 0.002 0 0.003v-0 19.271c-0.26-0.128-0.521-0.245-0.781-0.352-0.297-0.122-0.681-0.253-1.074-0.363l-0.082-0.020v-18.576l-0.018-0.018c-0.014-0.016-0.034-0.027-0.057-0.029l-0-0h-24.729c-0.047 0.001-0.085 0.039-0.086 0.086v25.107c0.007 0.045 0.041 0.079 0.085 0.086l0.001 0h11.083v0.115c-0.002 0.039-0.003 0.084-0.003 0.129 0 0.645 0.21 1.241 0.566 1.722l-0.006-0.008zM15.857 26.969c0.426-0.514 0.865-0.976 1.334-1.408l0.010-0.009c1.878-1.708 4.221-2.831 6.427-2.865s4.661 0.982 6.784 2.732c0.596 0.493 1.131 1.004 1.629 1.55l0.011 0.012c0.082 0.092 0.132 0.213 0.132 0.347 0 0.118-0.039 0.226-0.105 0.313l0.001-0.001c-0.579 0.816-1.24 1.521-1.986 2.125l-0.020 0.015c-1.68 1.341-3.865 2.211-5.865 2.224s-4.216-0.833-5.99-2.083c-0.913-0.654-1.701-1.402-2.375-2.245l-0.018-0.023c-0.069-0.088-0.111-0.2-0.111-0.322 0-0.137 0.053-0.262 0.14-0.356l-0 0zM17.896 26.315c-0.351 0.321-0.675 0.651-0.98 0.999l-0.012 0.014c0.563 0.654 1.189 1.228 1.877 1.721l0.032 0.022c1.599 1.138 3.615 1.919 5.406 1.901s3.734-0.81 5.229-2.003c0.587-0.475 1.1-1.003 1.546-1.585l0.016-0.022c-0.388-0.406-0.793-0.785-1.219-1.14l-0.023-0.019c-1.924-1.586-4.167-2.536-6.112-2.497s-4.060 1.070-5.75 2.604zM9.914 19.107h12.596c0.078 0.003 0.14 0.065 0.143 0.143v0.925c-1.26 0.141-2.41 0.472-3.469 0.966l0.068-0.028-0.141 0.065h-9.198c-0.079-0.001-0.142-0.065-0.143-0.143v-1.784c0-0.079 0.064-0.143 0.143-0.143v0zM7.326 6.922c0.001 0 0.002 0 0.003 0 0.657 0 1.19 0.533 1.19 1.19s-0.533 1.19-1.19 1.19c-0.657 0-1.19-0.533-1.19-1.19 0-0.001 0-0.002 0-0.003v0c0.001-0.655 0.532-1.186 1.187-1.188h0zM9.914 7.076h12.596c0.079 0.001 0.142 0.065 0.143 0.143v1.784c-0.004 0.077-0.066 0.139-0.143 0.143h-12.597c-0.078-0.003-0.14-0.065-0.143-0.143v-1.784c0-0.079 0.064-0.143 0.143-0.143v0zM7.326 12.938c0.001 0 0.002 0 0.003 0 0.657 0 1.19 0.533 1.19 1.19s-0.533 1.19-1.19 1.19c-0.657 0-1.19-0.533-1.19-1.19v0c0 0 0 0 0 0 0-0.656 0.531-1.189 1.187-1.19h0zM9.914 13.091h12.596c0.079 0.001 0.142 0.065 0.143 0.143v1.784c-0.004 0.077-0.066 0.139-0.143 0.143h-12.597c-0.078-0.003-0.14-0.065-0.143-0.143v-1.784c0-0.079 0.064-0.143 0.143-0.143v0zM7.326 18.953c0.001 0 0.002 0 0.003 0 0.657 0 1.19 0.533 1.19 1.19s-0.533 1.19-1.19 1.19c-0.657 0-1.19-0.533-1.19-1.19v0c0.001-0.656 0.532-1.187 1.187-1.19h0zM23.211 25.203c0.001 0 0.002 0 0.003 0 0.568 0 1.029 0.461 1.029 1.029s-0.461 1.029-1.029 1.029c-0.564 0-1.021-0.453-1.029-1.015v-0.001c0-0 0-0 0-0 0-0.57 0.457-1.033 1.025-1.042h0.001z"></path>
        </symbol>

        <symbol id="icon-like" viewBox="0 0 32 32">
            <path d="M16.009 30.53c-0.815 0-1.564-0.228-2.232-0.677-3.678-1.833-13.777-8.754-13.777-17.333 0-5.885 4.789-10.674 10.674-10.674 1.889 0 3.715 0.493 5.335 1.433 1.62-0.94 3.45-1.433 5.335-1.433 5.885 0 10.674 4.789 10.674 10.674 0 8.579-10.099 15.504-13.777 17.333-0.668 0.45-1.417 0.677-2.232 0.677zM10.674 4.514c-4.414 0-8.005 3.59-8.005 8.005 0 3.659 2.516 7.031 4.627 9.213 2.688 2.779 5.854 4.845 7.746 5.769l0.19 0.116c0.471 0.337 1.080 0.337 1.552 0l0.19-0.116c1.895-0.927 5.061-2.991 7.746-5.769 2.11-2.182 4.627-5.551 4.627-9.213 0-4.414-3.59-8.005-8.005-8.005-1.642 0-3.222 0.5-4.574 1.439l-0.759 0.534-0.765-0.534c-1.349-0.943-2.931-1.439-4.571-1.439z"></path>
        </symbol>

        <symbol id="icon-comment" viewBox="0 0 29 32">
            <path d="M21.849 1.324h-14.611c-3.253 0-5.914 2.661-5.914 5.914v10.437c0 3.252 2.661 5.914 5.914 5.914h4.594c-0.657 2.6-1.453 4.937-3.885 7.094 4.65-1.189 8.24-3.594 10.875-7.094h0.795c3.252 0 8.147-2.661 8.147-5.914v-10.437c-0.001-3.253-2.661-5.914-5.914-5.914zM21.129 10.696c-1.185 0-2.146 0.961-2.146 2.146s0.961 2.146 2.146 2.146 2.146-0.961 2.146-2.146v0c0-1.185-0.961-2.146-2.146-2.146v0zM7.959 10.696c-0.007-0-0.015-0-0.024-0-1.186 0-2.147 0.961-2.147 2.147s0.961 2.147 2.147 2.147c0.008 0 0.017-0 0.025-0h-0.001c1.175-0.013 2.123-0.969 2.123-2.146s-0.948-2.133-2.122-2.146h-0.001zM14.544 10.696c-1.171 0.019-2.113 0.973-2.113 2.146s0.942 2.127 2.111 2.146l0.002 0c1.185 0 2.146-0.961 2.146-2.146s-0.961-2.146-2.146-2.146zM7.238 0.001l14.613 0.005c1.994 0.001 3.803 0.812 5.11 2.119l-0.003 0.003c1.309 1.311 2.122 3.119 2.122 5.109h0.005v0.001h-0.005v10.437h0.005v0.001h-0.005c-0.001 2.128-1.479 3.981-3.448 5.276-1.834 1.205-4.149 1.954-6.017 1.954v0.005h-0.001v-0.005h-0.15c-1.319 1.643-2.849 3.045-4.603 4.197-1.938 1.273-4.131 2.232-6.591 2.861l-0.001-0.004c-0.098 0.026-0.21 0.041-0.325 0.041-0.728 0-1.318-0.59-1.318-1.318 0-0.393 0.172-0.745 0.444-0.986l0.001-0.001c1.072-0.951 1.784-1.94 2.298-2.978 0.287-0.578 0.517-1.181 0.717-1.807h-2.853v-0.005c-1.994-0.001-3.803-0.812-5.11-2.119s-2.119-3.116-2.119-5.111h-0.005v-0.001h0.005v-10.437h-0.005v-0.002h0.005c0-1.953 0.782-3.73 2.046-5.031 0.023-0.027 0.047-0.054 0.073-0.079 1.308-1.308 3.117-2.12 5.111-2.12v-0.005h0.001z"></path>
        </symbol>

    </defs>
</svg>
